<?xml version="1.0" encoding="UTF-8"?>
<svg xmlns="http://www.w3.org/2000/svg" xmlns:xlink="http://www.w3.org/1999/xlink" width="194.02pt" height="194.03pt" viewBox="0 0 194.02 194.03" version="1.1">
<defs>
<clipPath id="clip1">
  <path d="M 0 0 L 194.019531 0 L 194.019531 194.03125 L 0 194.03125 Z M 0 0 "/>
</clipPath>
</defs>
<g id="surface1">
<g clip-path="url(#clip1)" clip-rule="nonzero">
<path style=" stroke:none;fill-rule:nonzero;fill:rgb(13.699341%,12.199402%,12.5%);fill-opacity:1;" d="M 68.261719 181.875 C 68.53125 182.269531 68.804688 182.660156 69.082031 183.050781 C 69.617188 182.929688 70.144531 182.804688 70.667969 182.671875 C 70.394531 182.289063 70.117188 181.902344 69.851563 181.519531 C 69.328125 181.640625 68.796875 181.761719 68.261719 181.875 Z M 82.449219 179.753906 C 82.578125 179.339844 82.578125 178.941406 82.460938 178.550781 C 82.371094 178.300781 82.179688 177.914063 81.894531 177.394531 C 81.40625 177.957031 80.910156 178.515625 80.402344 179.070313 C 80.988281 179.644531 81.21875 180.1875 81.054688 180.703125 C 78.6875 180.96875 76.527344 180.691406 73.386719 179.726563 C 70.558594 178.851563 67.773438 177.84375 65.027344 176.691406 C 65.023438 176.695313 65.019531 176.699219 65.019531 176.703125 C 64.871094 176.644531 64.777344 176.601563 64.71875 176.582031 C 64.296875 176.386719 63.976563 176.167969 63.800781 175.925781 C 63.140625 175.070313 63.449219 173.777344 64.679688 172.066406 C 65.753906 170.570313 65.964844 170.121094 67.035156 168.621094 C 66.523438 168.75 66.007813 168.867188 65.488281 168.984375 C 64.453125 170.445313 64.28125 170.855469 63.25 172.320313 C 62.054688 174.007813 61.539063 175.410156 61.746094 176.53125 C 61.800781 176.792969 62 177.105469 62.351563 177.449219 C 62.640625 177.738281 62.898438 177.917969 63.105469 178.011719 C 66.207031 179.34375 69.363281 180.503906 72.5625 181.496094 C 73.890625 181.871094 74.777344 182.125 76.070313 182.234375 C 78.503906 182.441406 80.09375 182.15625 80.765625 181.71875 C 81.683594 181.121094 82.234375 180.460938 82.449219 179.753906 Z M 70.667969 182.671875 C 70.949219 183.058594 71.238281 183.445313 71.53125 183.832031 C 72.058594 183.695313 72.582031 183.554688 73.101563 183.410156 C 72.808594 183.03125 72.523438 182.652344 72.238281 182.273438 C 71.71875 182.410156 71.195313 182.542969 70.667969 182.671875 Z M 88.722656 185.871094 C 89.210938 186.21875 89.707031 186.5625 90.210938 186.902344 C 90.78125 186.617188 91.339844 186.332031 91.890625 186.039063 C 91.386719 185.699219 90.890625 185.359375 90.398438 185.019531 C 89.847656 185.304688 89.289063 185.585938 88.722656 185.871094 Z M 86.332031 175.324219 C 85.769531 175.625 85.203125 175.929688 84.617188 176.222656 C 85.039063 176.640625 85.46875 177.058594 85.910156 177.472656 C 86.492188 177.171875 87.0625 176.863281 87.625 176.554688 C 87.183594 176.144531 86.753906 175.738281 86.332031 175.324219 Z M 91.890625 186.039063 C 92.398438 186.375 92.90625 186.707031 93.425781 187.03125 C 93.976563 186.734375 94.523438 186.429688 95.058594 186.125 C 94.539063 185.804688 94.03125 185.476563 93.523438 185.148438 C 92.984375 185.449219 92.445313 185.746094 91.890625 186.039063 Z M 108.878906 176.167969 C 109.09375 175.59375 109.226563 175.082031 109.285156 174.621094 C 109.003906 174.535156 108.71875 174.40625 108.4375 174.230469 C 108.105469 174.023438 107.917969 173.828125 107.878906 173.644531 C 107.855469 173.5625 107.867188 173.4375 107.902344 173.273438 C 107.933594 173.101563 107.941406 172.980469 107.929688 172.902344 C 107.902344 172.773438 107.839844 172.71875 107.738281 172.730469 C 107.597656 172.746094 107.363281 173.066406 107.007813 173.6875 C 106.652344 174.304688 106.480469 174.699219 106.507813 174.859375 C 106.535156 175.003906 106.835938 175.261719 107.421875 175.632813 C 107.976563 177.71875 108.542969 179.804688 109.128906 181.886719 C 108.554688 182.132813 107.558594 182.320313 106.285156 182.460938 C 106.285156 182.460938 106.285156 182.457031 106.285156 182.457031 C 103.351563 182.710938 100.402344 182.851563 97.457031 182.867188 C 97.457031 182.867188 97.457031 182.867188 97.457031 182.871094 C 96.519531 182.867188 95.863281 182.816406 95.589844 182.726563 C 95.316406 182.644531 95.046875 182.46875 94.789063 182.195313 C 94.546875 181.949219 94.40625 181.714844 94.367188 181.507813 C 94.1875 180.539063 94.019531 179.566406 93.859375 178.597656 C 93.847656 178.484375 93.742188 178.398438 93.546875 178.324219 C 93.339844 178.457031 93.101563 178.675781 92.832031 178.984375 C 92.585938 179.261719 92.347656 179.449219 92.136719 179.542969 C 91.792969 179.699219 91.300781 179.765625 90.667969 179.726563 C 90.261719 179.398438 89.859375 179.070313 89.46875 178.738281 C 89.039063 179.238281 88.601563 179.734375 88.15625 180.226563 C 88.914063 180.910156 89.269531 181.632813 89.167969 182.414063 C 89.144531 182.613281 89.089844 182.824219 89.007813 183.03125 C 88.964844 183.15625 88.921875 183.28125 88.882813 183.40625 C 88.863281 183.40625 88.847656 183.402344 88.832031 183.402344 C 88.40625 183.9375 87.558594 184.441406 86.253906 184.882813 C 84.917969 185.332031 83.746094 185.492188 82.792969 185.375 C 82.039063 185.285156 81.140625 185.085938 80.101563 184.777344 C 80.371094 185.175781 80.949219 185.59375 81.847656 186.023438 C 82.742188 186.449219 83.554688 186.695313 84.261719 186.773438 C 85.457031 186.902344 86.652344 186.539063 87.773438 185.683594 C 88.398438 185.214844 88.902344 184.636719 89.34375 184.007813 C 90.015625 183.34375 90.386719 182.527344 90.46875 181.535156 C 90.476563 181.472656 90.484375 181.410156 90.488281 181.351563 C 91.476563 181.222656 92.324219 180.867188 93.007813 180.300781 C 93.082031 180.839844 93.15625 181.382813 93.222656 181.921875 C 93.386719 182.738281 93.660156 183.375 94.042969 183.828125 C 94.550781 184.445313 95.265625 184.761719 96.15625 184.765625 C 99.882813 184.789063 103.605469 184.625 107.316406 184.273438 C 108.527344 184.160156 109.386719 183.625 109.851563 182.683594 C 110.214844 181.949219 110.285156 181.152344 110.097656 180.304688 C 110.0625 180.164063 109.644531 178.78125 108.878906 176.167969 Z M 131.429688 174.773438 C 131.199219 174.882813 130.769531 174.960938 130.140625 175.015625 C 129.476563 175.074219 129.117188 175.042969 129.042969 174.929688 C 128.96875 174.824219 129.007813 174.605469 129.144531 174.277344 C 129.277344 173.949219 129.433594 173.738281 129.601563 173.664063 C 129.9375 173.511719 130.339844 173.519531 130.8125 173.675781 C 131.238281 173.820313 131.554688 174.003906 131.726563 174.25 C 131.871094 174.441406 131.769531 174.617188 131.429688 174.773438 Z M 131.210938 172.515625 C 130.324219 172.15625 129.722656 172.042969 129.382813 172.199219 C 128.914063 172.417969 128.566406 173.050781 128.308594 174.113281 C 127.988281 175.4375 127.71875 176.199219 127.574219 176.394531 C 127.398438 176.652344 126.785156 177.011719 125.785156 177.433594 C 125.785156 177.425781 125.777344 177.425781 125.773438 177.417969 C 123.199219 178.40625 121.308594 179.183594 118.667969 179.9375 C 118.671875 179.9375 117.941406 180.035156 117.945313 180.042969 C 117.796875 180.082031 118.183594 180.117188 118.128906 180.136719 C 117.671875 180.25 116.890625 180.039063 116.578125 179.9375 C 115.359375 179.527344 115.171875 178.734375 114.488281 176.832031 C 113.882813 175.171875 113.734375 174.441406 113.136719 172.785156 C 112.910156 173.167969 112.679688 173.546875 112.441406 173.929688 C 112.800781 175.683594 112.878906 176.4375 113.472656 178.042969 C 114.160156 179.910156 114.527344 181.164063 115.644531 181.820313 C 115.90625 181.976563 116.304688 182.070313 116.839844 182.105469 C 117.273438 182.136719 117.613281 182.113281 117.828125 182.054688 C 121.054688 181.167969 124.238281 180.113281 127.378906 178.886719 C 128.621094 178.402344 129.152344 177.597656 128.949219 176.515625 C 129.046875 176.617188 129.554688 176.617188 130.488281 176.503906 C 131.429688 176.386719 132.027344 176.25 132.296875 176.132813 C 132.941406 175.832031 133.277344 175.382813 133.296875 174.796875 C 133.296875 174.339844 133.128906 173.882813 132.773438 173.421875 C 132.566406 173.148438 132.035156 172.851563 131.210938 172.515625 Z M 176.664063 74.785156 L 176.234375 72.988281 L 179.125 73.210938 L 179.136719 73.25 Z M 182.484375 73.703125 L 182.054688 72.785156 L 174.113281 71.734375 C 172.824219 71.554688 172.71875 71.359375 172.445313 70.667969 L 171.898438 70.796875 L 172.6875 74.070313 L 173.238281 73.9375 L 173.179688 73.519531 C 173.097656 72.855469 173.234375 72.824219 173.882813 72.859375 L 175.335938 72.953125 L 175.890625 75.257813 L 174.578125 76.109375 C 174.117188 76.414063 173.972656 76.417969 173.777344 75.917969 L 173.617188 75.507813 L 173.070313 75.644531 L 174.140625 80.050781 L 174.683594 79.914063 C 174.605469 79.207031 174.609375 78.9375 175.726563 78.195313 C 177.027344 77.3125 178.535156 76.308594 180.0625 75.300781 Z M 30.011719 42.316406 L 30.035156 42.285156 L 32.714844 43.414063 L 31.5 44.808594 Z M 31.792969 49.238281 L 32.21875 49.609375 L 34.425781 47.074219 L 34.003906 46.703125 L 33.695313 46.992188 C 33.203125 47.441406 33.09375 47.347656 32.75 46.796875 L 31.992188 45.558594 L 33.546875 43.773438 L 35 44.351563 C 35.515625 44.554688 35.605469 44.667969 35.308594 45.117188 L 35.066406 45.484375 L 35.488281 45.855469 L 38.472656 42.4375 L 38.046875 42.066406 C 37.519531 42.542969 37.292969 42.691406 36.042969 42.214844 C 34.570313 41.65625 32.878906 41.007813 31.175781 40.34375 L 28.472656 39.289063 L 27.96875 40.171875 L 31.699219 47.261719 C 32.296875 48.414063 32.199219 48.617188 31.792969 49.238281 Z M 84.898438 12.128906 L 84.941406 12.125 L 86.15625 14.765625 L 84.320313 14.972656 Z M 84.949219 18.621094 L 84.886719 18.0625 L 84.464844 18.066406 C 83.796875 18.066406 83.777344 17.925781 83.898438 17.285156 L 84.171875 15.859375 L 86.523438 15.597656 L 87.207031 17 C 87.449219 17.496094 87.4375 17.640625 86.914063 17.773438 L 86.492188 17.882813 L 86.554688 18.441406 L 91.0625 17.933594 L 90.996094 17.371094 C 90.285156 17.367188 90.019531 17.324219 89.417969 16.128906 C 88.707031 14.722656 87.898438 13.101563 87.089844 11.460938 L 85.808594 8.859375 L 84.839844 9.171875 L 82.804688 16.917969 C 82.46875 18.175781 82.261719 18.257813 81.539063 18.4375 L 81.601563 19 Z M 113.472656 11.664063 C 114.0625 13.554688 114.371094 14.554688 114.511719 15.253906 C 114.589844 15.640625 114.585938 15.726563 114.484375 16.179688 L 114.21875 17.390625 C 113.878906 18.914063 113.742188 18.988281 112.621094 18.828125 L 112.503906 19.378906 L 117.382813 20.460938 L 117.503906 19.90625 C 116.367188 19.566406 116.277344 19.445313 116.613281 17.921875 L 116.925781 16.515625 C 117.054688 15.921875 117.117188 15.84375 117.464844 15.402344 C 118.183594 14.511719 118.824219 13.828125 119.542969 13.039063 C 120.207031 12.3125 120.484375 12.195313 121.292969 12.285156 L 121.414063 11.738281 L 118.019531 10.984375 L 117.894531 11.535156 L 118.476563 11.722656 C 118.972656 11.878906 118.898438 12.070313 118.664063 12.398438 C 118.003906 13.304688 117.101563 14.523438 116.710938 15 C 116.398438 13.878906 116.1875 12.976563 115.871094 11.710938 C 115.800781 11.382813 115.773438 11.214844 116.144531 11.234375 L 116.738281 11.277344 L 116.859375 10.726563 L 112.503906 9.765625 L 112.382813 10.3125 C 112.996094 10.539063 113.164063 10.648438 113.472656 11.664063 Z M 140.742188 31.277344 C 142.597656 32.539063 144.507813 32.265625 145.511719 30.800781 C 146.460938 29.402344 145.929688 28.152344 145.171875 26.902344 L 144.988281 26.601563 C 144.460938 25.738281 144.234375 25.074219 144.636719 24.476563 C 145.027344 23.90625 145.773438 23.730469 146.382813 24.144531 C 147.324219 24.785156 147.167969 25.917969 146.894531 26.886719 L 147.476563 27.160156 C 147.894531 26.257813 148.214844 25.613281 148.476563 25.117188 C 148.355469 24.964844 148.195313 24.785156 147.972656 24.527344 C 147.6875 24.195313 147.34375 23.890625 146.972656 23.640625 C 145.097656 22.363281 143.371094 22.796875 142.453125 24.144531 C 141.582031 25.425781 142.273438 26.800781 142.941406 27.921875 L 143.066406 28.125 C 143.566406 28.953125 143.765625 29.664063 143.285156 30.371094 C 142.761719 31.148438 142.003906 31.226563 141.382813 30.804688 C 140.214844 30.007813 140.414063 28.207031 140.632813 27.34375 L 140 27.140625 C 139.597656 28.035156 139.3125 28.785156 139.035156 29.402344 C 139.132813 29.570313 139.316406 29.839844 139.59375 30.203125 C 139.84375 30.527344 140.269531 30.953125 140.742188 31.277344 Z M 21.199219 72.785156 L 22.382813 68.425781 L 21.835938 68.277344 C 21.464844 69.253906 21.417969 69.269531 19.859375 68.890625 L 15.152344 67.765625 C 13.675781 67.40625 13.636719 67.335938 13.828125 66.253906 L 13.28125 66.105469 L 12.363281 69.492188 L 17.304688 73.121094 L 11.121094 74.0625 L 10.234375 77.335938 L 10.777344 77.484375 C 11.175781 76.410156 11.355469 76.339844 13.089844 76.917969 L 15.859375 77.832031 C 17.113281 78.246094 17.828125 78.53125 18.238281 78.71875 C 18.730469 78.941406 18.800781 79.242188 18.675781 79.929688 L 19.21875 80.078125 L 20.152344 76.632813 L 19.609375 76.484375 C 19.292969 77.375 19.082031 77.644531 18.554688 77.5625 C 18.105469 77.5 17.433594 77.332031 16.246094 76.964844 L 13.179688 76.027344 L 13.1875 76 L 20.375 75.210938 L 20.578125 74.460938 L 14.328125 69.875 L 14.339844 69.816406 L 19.257813 71.109375 C 20.808594 71.511719 20.839844 71.566406 20.652344 72.640625 Z M 163.0625 51.296875 C 162.53125 50.453125 162.542969 50.296875 163.78125 49.355469 L 167.582031 46.476563 C 168.824219 45.535156 168.972656 45.5625 169.644531 46.304688 L 170.09375 45.964844 L 167.265625 42.234375 L 166.816406 42.578125 C 167.351563 43.421875 167.339844 43.578125 166.09375 44.519531 L 162.300781 47.398438 C 161.058594 48.34375 160.90625 48.3125 160.234375 47.570313 L 159.785156 47.910156 L 162.613281 51.640625 Z M 52.695313 22.550781 L 55.046875 26.695313 C 55.820313 28.050781 55.769531 28.195313 54.855469 28.8125 L 55.136719 29.304688 L 61.363281 25.765625 C 61.257813 25.3125 60.777344 23.859375 60.582031 23.335938 L 59.992188 23.554688 C 60.167969 24.335938 60.148438 24.796875 60.082031 25.148438 C 60.003906 25.625 59.484375 25.96875 59.085938 26.199219 C 58.695313 26.417969 58.398438 26.566406 58.140625 26.585938 C 57.851563 26.597656 57.648438 26.300781 57.277344 25.644531 L 54.828125 21.339844 C 54.058594 19.980469 54.109375 19.835938 54.972656 19.25 L 54.695313 18.757813 L 50.609375 21.074219 L 50.890625 21.566406 C 51.773438 21.164063 51.925781 21.195313 52.695313 22.550781 Z M 13.703125 96.183594 L 12.40625 92.191406 L 11.105469 96.183594 L 6.910156 96.183594 L 10.304688 98.648438 L 9.007813 102.640625 L 12.40625 100.171875 L 15.796875 102.640625 L 14.5 98.648438 L 17.898438 96.183594 Z M 187.117188 96.183594 L 182.917969 96.183594 L 181.617188 92.191406 L 180.324219 96.183594 L 176.128906 96.183594 L 179.527344 98.648438 L 178.226563 102.640625 L 181.617188 100.171875 L 185.019531 102.640625 L 183.722656 98.648438 Z M 86.070313 125.839844 L 86.820313 123.539063 L 86.855469 123.539063 L 87.617188 125.839844 Z M 90.195313 127.277344 C 89.734375 126.042969 89.21875 124.625 88.699219 123.191406 L 87.878906 120.914063 L 87.046875 121.082031 L 84.640625 127.3125 C 84.242188 128.324219 84.0625 128.371094 83.445313 128.457031 L 83.445313 128.925781 L 86.253906 128.925781 L 86.253906 128.457031 L 85.90625 128.417969 C 85.351563 128.359375 85.351563 128.238281 85.507813 127.722656 L 85.867188 126.566406 L 87.84375 126.566406 L 88.28125 127.792969 C 88.433594 128.226563 88.410156 128.347656 87.964844 128.40625 L 87.601563 128.457031 L 87.601563 128.925781 L 91.386719 128.925781 L 91.386719 128.457031 C 90.796875 128.386719 90.578125 128.324219 90.195313 127.277344 Z M 107.429688 125.839844 L 108.179688 123.539063 L 108.210938 123.539063 L 108.972656 125.839844 Z M 111.550781 127.277344 C 111.09375 126.042969 110.574219 124.625 110.058594 123.191406 L 109.238281 120.914063 L 108.40625 121.082031 L 105.996094 127.3125 C 105.597656 128.324219 105.421875 128.371094 104.804688 128.457031 L 104.804688 128.925781 L 107.613281 128.925781 L 107.613281 128.457031 L 107.261719 128.417969 C 106.707031 128.359375 106.707031 128.238281 106.863281 127.722656 L 107.226563 126.566406 L 109.199219 126.566406 L 109.636719 127.792969 C 109.789063 128.226563 109.765625 128.347656 109.320313 128.40625 L 108.960938 128.457031 L 108.960938 128.925781 L 112.742188 128.925781 L 112.742188 128.457031 C 112.152344 128.386719 111.9375 128.324219 111.550781 127.277344 Z M 121.707031 127.949219 C 121.453125 128.261719 120.9375 128.296875 120.550781 128.296875 C 120.175781 128.296875 119.898438 128.289063 119.703125 128.191406 C 119.488281 128.082031 119.464844 127.78125 119.464844 127.152344 L 119.464844 123.019531 C 119.464844 121.722656 119.5625 121.636719 120.429688 121.566406 L 120.429688 121.09375 L 116.515625 121.09375 L 116.515625 121.566406 C 117.320313 121.636719 117.417969 121.722656 117.417969 123.019531 L 117.417969 126.996094 C 117.417969 128.296875 117.320313 128.386719 116.40625 128.457031 L 116.40625 128.925781 L 122.382813 128.925781 C 122.488281 128.550781 122.742188 127.300781 122.8125 126.839844 L 122.296875 126.757813 C 122.101563 127.394531 121.898438 127.722656 121.707031 127.949219 Z M 100.347656 127.949219 C 100.097656 128.261719 99.578125 128.296875 99.195313 128.296875 C 98.820313 128.296875 98.539063 128.289063 98.347656 128.191406 C 98.132813 128.082031 98.105469 127.78125 98.105469 127.152344 L 98.105469 123.019531 C 98.105469 121.722656 98.203125 121.636719 99.070313 121.566406 L 99.070313 121.09375 L 95.15625 121.09375 L 95.15625 121.566406 C 95.964844 121.636719 96.058594 121.722656 96.058594 123.019531 L 96.058594 126.996094 C 96.058594 128.296875 95.964844 128.386719 95.046875 128.457031 L 95.046875 128.925781 L 101.023438 128.925781 C 101.128906 128.550781 101.382813 127.300781 101.457031 126.839844 L 100.9375 126.757813 C 100.746094 127.394531 100.539063 127.722656 100.347656 127.949219 Z M 75.871094 121.566406 C 76.628906 121.636719 76.726563 121.722656 76.726563 123.019531 L 76.726563 124.417969 L 74.230469 124.417969 L 74.230469 123.019531 C 74.230469 121.722656 74.328125 121.636719 75.066406 121.566406 L 75.066406 121.09375 L 71.210938 121.09375 L 71.210938 121.566406 C 72.085938 121.636719 72.183594 121.722656 72.183594 123.019531 L 72.183594 126.996094 C 72.183594 128.296875 72.085938 128.386719 71.257813 128.457031 L 71.257813 128.925781 L 75.109375 128.925781 L 75.109375 128.457031 C 74.328125 128.386719 74.230469 128.296875 74.230469 126.996094 L 74.230469 125.167969 L 76.726563 125.167969 L 76.726563 126.996094 C 76.726563 128.296875 76.628906 128.386719 75.773438 128.457031 L 75.773438 128.925781 L 79.699219 128.925781 L 79.699219 128.457031 C 78.867188 128.386719 78.773438 128.296875 78.773438 126.996094 L 78.773438 123.019531 C 78.773438 121.722656 78.867188 121.636719 79.722656 121.566406 L 79.722656 121.09375 L 75.871094 121.09375 Z M 86.359375 87.703125 C 90.535156 90.617188 92.816406 99.734375 92.816406 99.734375 C 95.09375 79.328125 76.488281 73.496094 76.488281 73.496094 C 76.488281 73.496094 76.101563 74.585938 76.488281 80.042969 C 76.863281 85.527344 82.171875 84.789063 86.359375 87.703125 Z M 74.964844 105.195313 C 76.488281 101.554688 73.824219 81.867188 73.824219 76.761719 C 73.824219 71.675781 75.71875 68.753906 75.71875 68.753906 C 73.066406 67.292969 71.175781 60.730469 71.175781 60.730469 C 70.402344 62.554688 67.753906 66.5625 67.753906 66.5625 C 67.753906 66.5625 75.347656 102.652344 70.402344 107.003906 C 65.472656 111.375 55.59375 112.117188 49.902344 108.484375 C 44.195313 104.832031 50.273438 93.164063 50.273438 93.164063 C 46.851563 97.171875 44.195313 101.910156 44.578125 107.003906 C 44.957031 112.117188 48.753906 117.207031 57.871094 117.578125 C 66.984375 117.945313 73.4375 108.835938 74.964844 105.195313 Z M 123.585938 91.710938 C 117.402344 92.410156 114.003906 102.785156 113.730469 103.652344 C 113.871094 103.265625 114.710938 101.59375 119.027344 99.367188 C 123.96875 96.800781 133.835938 102.28125 133.835938 102.28125 C 129.285156 106.289063 120.917969 106.65625 114.085938 105.917969 C 107.253906 105.179688 107.628906 90.617188 107.253906 79.328125 C 106.863281 68.03125 104.589844 69.125 104.589844 69.125 C 104.589844 69.125 104.96875 64.011719 100.039063 87.335938 C 95.09375 110.648438 68.507813 116.476563 68.507813 116.476563 C 83.328125 118.671875 93.957031 111.746094 97.746094 104.460938 C 101.550781 97.171875 104.199219 81.867188 104.199219 81.867188 C 104.199219 103.738281 106.105469 109.195313 111.808594 111.746094 C 117.507813 114.308594 128.519531 110.660156 136.5 107.742188 C 141.574219 105.890625 147.515625 106.65625 147.515625 106.65625 L 152.066406 99.734375 C 152.066406 99.734375 145.605469 100.089844 141.058594 98.277344 C 136.5 96.453125 130.046875 90.988281 123.585938 91.710938 Z M 147.53125 117.941406 L 147.53125 147.539063 L 117.9375 147.539063 L 97.011719 168.464844 L 76.085938 147.539063 L 46.488281 147.539063 L 46.488281 117.941406 L 25.558594 97.015625 L 46.488281 76.089844 L 46.488281 46.492188 L 76.085938 46.492188 L 97.011719 25.566406 L 117.9375 46.492188 L 147.53125 46.492188 L 147.53125 76.089844 L 168.464844 97.015625 Z M 97.011719 20.894531 C 54.972656 20.894531 20.890625 54.976563 20.890625 97.015625 C 20.890625 139.054688 54.972656 173.136719 97.011719 173.136719 C 139.050781 173.136719 173.128906 139.054688 173.128906 97.015625 C 173.128906 54.976563 139.050781 20.894531 97.011719 20.894531 Z M 97.011719 189.15625 C 46.207031 189.15625 4.871094 147.824219 4.871094 97.015625 C 4.871094 46.210938 46.207031 4.871094 97.011719 4.871094 C 147.816406 4.871094 189.152344 46.210938 189.152344 97.015625 C 189.152344 147.824219 147.816406 189.15625 97.011719 189.15625 Z M 97.011719 0.00390625 C 43.519531 0.00390625 0 43.523438 0 97.015625 C 0 150.507813 43.519531 194.03125 97.011719 194.03125 C 150.503906 194.03125 194.019531 150.507813 194.019531 97.015625 C 194.019531 43.523438 150.503906 0.00390625 97.011719 0.00390625 "/>
</g>
</g>
</svg>
