<?xml version="1.0" encoding="utf-8"?>
<!-- Generator: Adobe Illustrator 23.0.0, SVG Export Plug-In . SVG Version: 6.00 Build 0)  -->
<svg version="1.1" id="Layer_1" xmlns="http://www.w3.org/2000/svg" xmlns:xlink="http://www.w3.org/1999/xlink" x="0px" y="0px"
	 viewBox="0 0 97.6 94.48" style="enable-background:new 0 0 97.6 94.48;" xml:space="preserve">
<style type="text/css">
	.st0{fill:#F39800;}
</style>
<path class="st0" d="M49.7,64.82h-0.73c-8.52,0-15.45-6.93-15.45-15.45V17.21c0-8.52,6.93-15.45,15.45-15.45h0.73
	c8.52,0,15.45,6.93,15.45,15.45v32.16C65.15,57.89,58.22,64.82,49.7,64.82z M48.97,13.99c-1.78,0-3.22,1.45-3.22,3.22v32.16
	c0,1.78,1.45,3.22,3.22,3.22h0.73c1.78,0,3.22-1.45,3.22-3.22V17.21c0-1.78-1.45-3.22-3.22-3.22H48.97z"/>
<g>
	<path class="st0" d="M5.93,89.26C4.97,88.32,4.49,87,4.49,85.29V76.2c0-1.64,0.48-2.89,1.44-3.72c0.96-0.84,2.37-1.26,4.22-1.26
		c1.85,0,3.25,0.42,4.22,1.26c0.96,0.84,1.44,2.08,1.44,3.72v9.09c0,1.72-0.48,3.04-1.44,3.98c-0.96,0.93-2.37,1.4-4.22,1.4
		C8.3,90.67,6.89,90.2,5.93,89.26z M10.98,86.71c0.14-0.3,0.21-0.71,0.21-1.24v-9.33c0-0.41-0.07-0.75-0.2-1.01
		c-0.13-0.26-0.4-0.39-0.81-0.39c-0.76,0-1.15,0.48-1.15,1.44v9.31c0,0.55,0.08,0.96,0.24,1.24c0.16,0.28,0.45,0.42,0.88,0.42
		C10.56,87.16,10.83,87.01,10.98,86.71z"/>
	<path class="st0" d="M17.16,90.49v-19.2h4.75v19.2H17.16z"/>
	<path class="st0" d="M25.25,92.59c-0.79-0.19-1.57-0.54-2.33-1.06l1.6-2.24c1.14,0.56,2.27,0.84,3.39,0.84
		c0.73,0,1.28-0.19,1.65-0.58c0.37-0.39,0.56-0.91,0.56-1.58v-0.89c-0.37,1.11-1.36,1.67-2.96,1.67c-1.33,0-2.32-0.38-2.95-1.13
		c-0.63-0.76-0.95-1.76-0.95-3.02v-6.11c0-1.44,0.29-2.54,0.87-3.3c0.58-0.76,1.59-1.14,3.03-1.14c0.84,0,1.5,0.17,1.99,0.52
		c0.49,0.35,0.81,0.84,0.97,1.48v-1.82h4.78v13.51c0,1.82-0.51,3.13-1.52,3.93c-1.01,0.8-2.63,1.2-4.86,1.2
		C27.13,92.87,26.04,92.78,25.25,92.59z M30.12,84.18v-5.8c0-0.33-0.11-0.64-0.32-0.93C29.59,77.15,29.32,77,29,77
		c-0.41,0-0.68,0.12-0.83,0.37c-0.14,0.24-0.21,0.58-0.21,1.01v5.8c0,0.49,0.07,0.89,0.21,1.19c0.14,0.3,0.43,0.46,0.85,0.46
		C29.76,85.82,30.12,85.28,30.12,84.18z"/>
	<path class="st0" d="M36.18,85.62v-6.53c0-1.54,0.52-2.77,1.56-3.68s2.47-1.37,4.28-1.37c1.81,0,3.24,0.46,4.28,1.37
		s1.56,2.14,1.56,3.68v6.53c0,3.36-1.95,5.05-5.84,5.05C38.12,90.67,36.18,88.99,36.18,85.62z M42.85,87.34
		c0.18-0.22,0.27-0.53,0.27-0.91v-7.96c0-0.95-0.36-1.42-1.09-1.42c-0.73,0-1.09,0.47-1.09,1.42v7.96c0,0.39,0.09,0.69,0.27,0.91
		c0.18,0.22,0.45,0.33,0.83,0.33C42.39,87.67,42.67,87.56,42.85,87.34z"/>
	<path class="st0" d="M50.81,90.03c-0.46-0.43-0.69-1.12-0.69-2.07V77.8h-1.31v-2.96h1.31V71.4h4.54v3.45h1.33v2.96h-1.33v9.13
		c0,0.28,0.03,0.49,0.08,0.62c0.05,0.13,0.2,0.2,0.43,0.2c0.18,0,0.35-0.01,0.51-0.02c0.16-0.01,0.27-0.02,0.32-0.02v2.67
		c-0.27,0.06-0.65,0.12-1.16,0.19c-0.51,0.07-1,0.1-1.48,0.1C52.12,90.67,51.27,90.46,50.81,90.03z"/>
	<path class="st0" d="M58.32,89.29c-0.87-0.92-1.31-2.29-1.31-4.11v-6.53c0-1.5,0.52-2.64,1.55-3.42c1.03-0.79,2.47-1.18,4.32-1.18
		c3.75,0,5.63,1.53,5.63,4.6v1.18c0,1.19-0.02,2.15-0.05,2.89h-6.78v3.16c0,0.56,0.07,1,0.21,1.32c0.14,0.32,0.44,0.48,0.91,0.48
		c0.36,0,0.61-0.09,0.76-0.27c0.15-0.18,0.24-0.38,0.27-0.61c0.03-0.23,0.04-0.57,0.04-1.01V84.2h4.64v0.93
		c0,1.9-0.44,3.29-1.32,4.19c-0.88,0.9-2.4,1.34-4.55,1.34C60.63,90.67,59.19,90.21,58.32,89.29z M63.87,80.78v-2.09
		c0-1.17-0.35-1.76-1.04-1.76c-0.78,0-1.17,0.59-1.17,1.76v2.09H63.87z"/>
	<path class="st0" d="M70.55,89.58c-0.54-0.73-0.81-1.81-0.81-3.25V74.22h4.7v11.34c0,0.1,0,0.38,0,0.83c0,0.45,0.08,0.77,0.25,0.96
		c0.17,0.19,0.43,0.28,0.79,0.28c0.48,0,0.78-0.17,0.91-0.5c0.12-0.33,0.19-0.81,0.19-1.43v-0.13l0.03-11.34h4.64v16.27h-4.67v-1.73
		c-0.32,0.68-0.69,1.17-1.12,1.47s-1.06,0.44-1.89,0.44C72.1,90.67,71.1,90.31,70.55,89.58z"/>
	<path class="st0" d="M82.71,74.22h4.67v2.07c0.2-0.67,0.53-1.21,1.01-1.62c0.48-0.41,1.12-0.62,1.92-0.62
		c1.32,0,2.29,0.34,2.92,1.01c0.63,0.67,0.95,1.63,0.95,2.88v12.56h-4.59V78.33c0-0.36-0.08-0.66-0.25-0.91
		c-0.17-0.25-0.43-0.38-0.79-0.38c-0.48,0-0.8,0.18-0.95,0.54c-0.15,0.36-0.23,0.85-0.23,1.46v11.45h-4.67V74.22z"/>
</g>
</svg>
